<?xml version="1.0" standalone="no"?>
<!DOCTYPE svg PUBLIC "-//W3C//DTD SVG 20010904//EN"
 "http://www.w3.org/TR/2001/REC-SVG-20010904/DTD/svg10.dtd">
<svg version="1.0" xmlns="http://www.w3.org/2000/svg"
 width="400.000000pt" height="365.000000pt" viewBox="0 0 400.000000 365.000000"
 preserveAspectRatio="xMidYMid meet">

<g transform="translate(0.000000,365.000000) scale(0.100000,-0.100000)"
fill="#000000" stroke="none">
<path d="M1864 2249 c-368 -341 -678 -629 -688 -640 -19 -18 -18 -22 88 -257
l108 -239 72 13 c39 8 78 14 86 14 10 0 44 -65 98 -184 l83 -183 317 144 c174
79 331 151 349 158 l32 14 -41 90 c-23 50 -39 93 -37 95 2 2 201 37 442 79
240 41 440 77 443 80 6 5 -659 1414 -675 1430 -4 4 -309 -272 -677 -614z m386
-1036 c0 -8 7 -24 15 -37 9 -13 13 -29 10 -37 -5 -13 -80 -50 -99 -48 -5 0
-12 -3 -15 -8 -7 -11 -83 -44 -95 -43 -5 1 -12 -2 -15 -7 -7 -11 -94 -49 -100
-45 -2 2 -7 0 -10 -5 -5 -8 -88 -47 -101 -48 -3 -1 -19 -9 -37 -18 -18 -9 -36
-17 -41 -17 -8 0 -35 52 -37 70 -1 3 -13 29 -28 57 -15 29 -27 55 -27 58 0 3
-7 19 -16 36 -8 17 -14 32 -12 34 2 1 26 6 53 10 28 3 61 8 75 11 345 64 456
79 468 65 6 -8 12 -21 12 -28z"/>
<path d="M883 1472 c-56 -26 -103 -52 -103 -57 0 -10 197 -456 206 -464 5 -5
198 77 220 93 12 9 -2 48 -89 241 -61 136 -109 231 -118 232 -8 1 -60 -20
-116 -45z"/>
</g>
</svg>
