<?xml version="1.0" standalone="no"?>
<!DOCTYPE svg PUBLIC "-//W3C//DTD SVG 20010904//EN"
 "http://www.w3.org/TR/2001/REC-SVG-20010904/DTD/svg10.dtd">
<svg version="1.0" xmlns="http://www.w3.org/2000/svg"
 width="1000.000000pt" height="803.000000pt" viewBox="0 0 1000.000000 803.000000"
 preserveAspectRatio="xMidYMid meet">
<metadata>
Created by potrace 1.13, written by Peter Selinger 2001-2015
</metadata>
<g transform="translate(0.000000,803.000000) scale(0.100000,-0.100000)"
fill="#000000" stroke="none">
<path d="M0 4015 l0 -4015 5000 0 5000 0 0 4015 0 4015 -5000 0 -5000 0 0
-4015z m6303 1818 c279 -586 506 -1068 504 -1069 -1 -2 -297 -53 -657 -114
-360 -61 -656 -113 -658 -114 -1 -2 25 -63 58 -136 33 -73 59 -134 58 -135 -2
-1 -234 -107 -516 -235 -299 -135 -517 -229 -522 -224 -5 5 -61 126 -126 269
-65 143 -118 261 -119 262 0 1 -56 -7 -124 -18 -67 -12 -124 -19 -127 -16 -3
2 -76 161 -164 353 l-158 349 61 60 c79 75 142 134 402 375 116 107 242 224
280 260 39 36 104 97 145 136 41 38 106 98 145 135 38 36 104 96 145 135 41
38 106 99 145 135 38 36 135 126 215 200 80 73 177 163 215 199 213 200 278
260 286 260 3 0 233 -480 512 -1067z m-2591 -1273 c87 -194 157 -354 156 -355
-14 -9 -349 -155 -355 -155 -7 1 -309 668 -315 699 -2 8 57 40 167 91 94 43
174 77 180 76 5 -1 80 -161 167 -356z m3408 -2140 l0 -610 65 0 65 0 0 -115 0
-115 -255 0 -255 0 0 115 0 115 65 0 65 0 0 495 0 495 -65 0 -65 0 0 115 0
115 190 0 190 0 0 -610z m580 0 l0 -610 70 0 70 0 0 -115 0 -115 -260 0 -260
0 0 115 0 115 70 0 70 0 0 495 0 495 -70 0 -70 0 0 115 0 115 190 0 190 0 0
-610z m-5715 558 c172 -52 269 -157 295 -319 26 -171 -64 -337 -224 -413 -77
-36 -124 -45 -283 -53 l-143 -6 0 -189 0 -188 70 0 70 0 0 -115 0 -115 -260 0
-260 0 0 115 0 115 65 0 65 0 0 475 0 475 -65 0 -65 0 0 121 0 121 343 -5
c266 -3 353 -7 392 -19z m3229 7 c101 -18 178 -56 242 -120 71 -70 97 -141 98
-260 1 -81 -2 -96 -30 -155 -31 -65 -110 -154 -146 -166 -17 -5 -17 -8 7 -36
45 -53 71 -118 110 -270 l38 -148 63 0 64 0 0 -125 0 -125 -168 0 -168 0 -57
238 c-85 350 -102 372 -279 372 l-98 0 0 -190 0 -190 70 0 70 0 0 -115 0 -115
-260 0 -260 0 0 115 0 115 65 0 65 0 0 475 0 475 -65 0 -65 0 0 120 0 120 313
0 c222 -1 335 -5 391 -15z m-2311 -400 c207 -44 308 -189 324 -467 l6 -108
-331 -2 -331 -3 18 -54 c25 -71 48 -101 107 -133 89 -50 248 -33 372 39 24 13
47 22 50 18 17 -17 100 -170 96 -177 -3 -4 -37 -27 -77 -50 -144 -84 -315
-116 -451 -84 -230 54 -355 233 -356 507 0 317 177 516 470 527 19 1 66 -5
103 -13z m1224 -34 c117 -55 208 -174 242 -316 20 -82 15 -239 -10 -320 -27
-88 -41 -117 -91 -182 -50 -66 -140 -127 -225 -153 -78 -24 -217 -27 -286 -6
l-47 14 0 -94 0 -94 70 0 70 0 0 -120 0 -120 -255 0 -255 0 0 120 0 120 60 0
60 0 0 470 0 470 -65 0 -65 0 0 115 0 115 190 0 c162 0 190 -2 190 -15 0 -18
-5 -19 59 6 117 44 250 40 358 -10z m2215 10 c71 -27 132 -86 166 -159 27 -57
27 -59 30 -324 l3 -268 50 0 49 0 0 -115 0 -115 -174 0 c-166 0 -174 1 -169
19 4 17 1 17 -44 -5 -185 -92 -411 -27 -494 142 -32 66 -34 187 -3 255 66 142
236 219 456 207 l88 -5 -6 41 c-15 97 -57 129 -166 128 -82 -1 -168 -24 -223
-59 -22 -15 -41 -21 -43 -15 -2 6 -21 47 -43 92 -21 45 -37 86 -34 90 11 17
112 68 175 88 97 31 97 31 215 28 85 -2 123 -8 167 -25z m1948 -106 l0 -115
-45 0 c-25 0 -45 -2 -45 -5 0 -8 139 -386 148 -400 4 -9 37 64 85 188 42 112
77 206 77 210 0 4 -18 7 -40 7 l-40 0 0 115 0 115 215 0 215 0 0 -115 0 -114
-56 -3 -57 -3 -178 -450 c-99 -247 -182 -458 -185 -467 -5 -16 2 -18 45 -18
l51 0 0 -120 0 -120 -225 0 -225 0 0 120 0 120 63 0 62 0 38 98 c20 54 37 102
37 107 0 6 -64 173 -142 372 l-143 363 -42 0 -43 0 0 115 0 115 215 0 215 0 0
-115z"/>
<path d="M4895 4438 c-225 -39 -412 -72 -414 -74 -6 -6 163 -374 170 -372 62
23 759 345 759 351 0 4 -16 44 -36 87 -25 54 -42 80 -53 79 -9 -1 -200 -33
-426 -71z"/>
<path d="M1630 2590 l0 -172 133 4 c109 3 139 7 172 24 78 41 107 142 65 230
-32 65 -68 78 -232 82 l-138 4 0 -172z"/>
<path d="M4890 2590 l0 -173 143 5 c160 5 192 15 234 78 30 44 32 140 3 187
-34 57 -68 67 -232 71 l-148 4 0 -172z"/>
<path d="M2734 2371 c-54 -14 -92 -43 -118 -92 -14 -26 -26 -49 -26 -53 0 -3
86 -6 191 -6 l190 0 -6 23 c-15 48 -50 97 -79 111 -40 19 -113 27 -152 17z"/>
<path d="M3834 2361 c-17 -4 -51 -19 -75 -32 l-44 -24 -3 -238 -2 -238 42 -19
c144 -63 285 -15 349 118 30 63 38 188 16 263 -19 64 -65 122 -117 149 -44 22
-122 32 -166 21z"/>
<path d="M6045 1976 c-49 -22 -70 -53 -70 -103 0 -36 5 -49 27 -68 55 -47 170
-42 251 11 l37 24 0 75 0 75 -107 0 c-67 -1 -119 -6 -138 -14z"/>
</g>
</svg>
