<?xml version="1.0" standalone="no"?>
<!DOCTYPE svg PUBLIC "-//W3C//DTD SVG 20010904//EN"
 "http://www.w3.org/TR/2001/REC-SVG-20010904/DTD/svg10.dtd">
<svg version="1.0" xmlns="http://www.w3.org/2000/svg"
 width="2000.000000pt" height="1541.000000pt" viewBox="0 0 2000.000000 1541.000000"
 preserveAspectRatio="xMidYMid meet">
<metadata>
Created by potrace 1.13, written by Peter Selinger 2001-2015
</metadata>
<g transform="translate(0.000000,1541.000000) scale(0.100000,-0.100000)"
fill="#000000" stroke="none">
<path d="M9545 11259 c-1116 -1040 -2029 -1894 -2028 -1897 5 -21 627 -1389
635 -1397 6 -6 92 4 251 32 133 22 245 38 249 34 4 -3 113 -240 243 -525 130
-285 240 -527 245 -536 9 -16 119 32 1032 447 563 255 1026 468 1030 471 3 4
-48 126 -114 271 -65 145 -116 267 -111 271 4 4 597 107 1318 229 720 122
1311 223 1312 225 4 4 -2021 4266 -2027 4265 -3 0 -918 -851 -2035 -1890z
m1217 -3058 c43 -96 77 -175 76 -176 -9 -7 -1552 -705 -1553 -703 -8 11 -345
761 -343 764 7 6 1695 292 1717 291 21 -2 34 -24 103 -176z"/>
<path d="M6737 9025 c-187 -85 -341 -155 -343 -158 -3 -3 623 -1409 629 -1413
1 -1 160 70 352 156 234 105 349 162 348 171 -7 38 -624 1394 -635 1396 -7 0
-165 -68 -351 -152z"/>
<path d="M13480 5825 l0 -225 135 0 135 0 0 -995 0 -995 -135 0 -135 0 0 -225
0 -225 510 0 510 0 0 225 0 225 -135 0 -135 0 0 1220 0 1220 -375 0 -375 0 0
-225z"/>
<path d="M14660 5825 l0 -225 130 0 130 0 0 -995 0 -995 -130 0 -130 0 0 -225
0 -225 510 0 510 0 0 225 0 225 -140 0 -140 0 0 1220 0 1220 -370 0 -370 0 0
-225z"/>
<path d="M2510 5755 l0 -225 125 0 125 0 0 -960 0 -960 -125 0 -125 0 0 -225
0 -225 510 0 510 0 0 225 0 225 -135 0 -135 0 0 395 0 395 254 0 c288 0 376
11 516 63 243 92 416 263 497 493 26 73 28 90 28 234 0 178 -12 234 -77 370
-75 157 -249 301 -440 365 -154 51 -220 55 -900 55 l-628 0 0 -225z m1220
-235 c108 -14 167 -37 218 -83 57 -53 79 -99 93 -192 12 -82 1 -172 -28 -229
-28 -54 -92 -113 -156 -142 l-62 -29 -267 -3 -268 -3 0 345 0 346 198 0 c108
0 231 -5 272 -10z"/>
<path d="M9030 5755 l0 -225 125 0 125 0 0 -960 0 -960 -125 0 -125 0 0 -225
0 -225 510 0 510 0 0 225 0 225 -135 0 -135 0 0 395 0 395 133 0 c234 -1 322
-23 399 -103 86 -88 99 -127 246 -732 l98 -400 327 -3 327 -2 0 240 0 240
-125 0 c-69 0 -125 2 -125 5 0 10 -132 522 -147 570 -33 106 -99 219 -176 302
l-29 31 35 19 c20 10 60 38 89 62 180 152 278 351 278 568 0 320 -167 579
-451 698 -193 82 -230 85 -986 85 l-643 0 0 -225z m1250 -235 c103 -14 160
-34 209 -76 54 -47 89 -116 101 -205 19 -133 -15 -238 -104 -316 -83 -72 -105
-77 -423 -81 l-283 -3 0 345 0 346 213 0 c116 0 246 -5 287 -10z"/>
<path d="M5380 5161 c-225 -49 -419 -181 -542 -367 -226 -342 -235 -904 -21
-1274 22 -38 78 -105 133 -160 83 -83 109 -102 200 -148 160 -80 238 -97 450
-96 205 0 296 17 469 86 94 38 275 137 340 187 l24 18 -102 172 -101 171 -111
-55 c-179 -90 -279 -121 -426 -131 -272 -20 -478 126 -538 380 -8 33 -15 67
-15 74 0 9 138 12 655 12 l655 0 0 133 c0 271 -67 542 -171 694 -100 145 -247
249 -424 298 -96 26 -367 30 -475 6z m352 -426 c94 -33 182 -145 203 -257 l7
-38 -387 0 -386 0 7 23 c3 12 21 51 39 87 76 150 197 215 385 205 47 -2 106
-11 132 -20z"/>
<path d="M7738 5170 c-70 -12 -154 -38 -245 -75 l-83 -33 0 39 0 39 -367 -2
-368 -3 0 -225 0 -225 128 -3 127 -3 0 -949 0 -950 -125 0 -125 0 0 -225 0
-225 510 0 510 0 0 225 0 225 -145 0 -145 0 0 200 c0 110 1 200 3 200 1 0 47
-12 102 -26 142 -37 333 -44 465 -16 309 64 539 245 671 526 83 179 115 350
106 576 -11 276 -92 491 -251 667 -102 113 -275 214 -426 248 -86 20 -273 28
-342 15z m167 -445 c177 -47 309 -193 350 -390 32 -151 13 -353 -44 -479 -90
-199 -238 -298 -446 -298 -117 -1 -184 14 -276 60 l-74 37 -3 471 -2 471 32
25 c130 99 317 141 463 103z"/>
<path d="M12216 5169 c-202 -17 -402 -83 -588 -196 -32 -19 -58 -38 -58 -43 0
-7 158 -349 165 -358 2 -2 27 12 56 31 81 52 110 64 202 91 226 66 445 50 528
-37 35 -37 66 -108 73 -167 4 -30 9 -72 12 -92 l6 -37 -31 9 c-16 4 -90 11
-163 15 -499 25 -841 -159 -928 -501 -86 -334 100 -642 450 -746 84 -25 255
-34 345 -19 83 15 204 60 268 101 26 16 49 30 50 30 1 0 1 -20 -1 -45 l-4 -45
341 0 341 0 0 225 0 225 -103 0 -103 0 4 403 c6 545 -7 667 -90 832 -35 68
-129 171 -197 215 -134 85 -355 127 -575 109z m384 -1247 c0 -38 -3 -109 -6
-159 l-7 -90 -61 -42 c-120 -81 -268 -113 -395 -87 -140 29 -196 94 -189 216
4 82 36 136 101 174 77 46 135 55 355 55 l202 1 0 -68z"/>
<path d="M15724 5127 c-2 -7 -3 -109 -2 -227 l3 -215 86 -3 86 -3 287 -727
c157 -400 286 -734 286 -743 0 -10 -35 -109 -79 -220 l-78 -204 -127 -3 -126
-3 0 -224 0 -225 445 0 445 0 0 225 0 225 -105 0 c-58 0 -105 2 -105 4 0 2
168 428 374 947 l375 944 108 5 108 5 0 225 0 225 -422 3 -423 2 0 -230 0
-229 89 -3 89 -3 -164 -430 c-91 -236 -166 -431 -168 -432 -3 -3 -316 848
-316 860 0 4 41 7 90 7 l90 0 0 230 0 230 -420 0 c-332 0 -422 -3 -426 -13z"/>
</g>
</svg>
