<?xml version="1.0" standalone="no"?>
<!DOCTYPE svg PUBLIC "-//W3C//DTD SVG 20010904//EN"
 "http://www.w3.org/TR/2001/REC-SVG-20010904/DTD/svg10.dtd">
<svg version="1.0" xmlns="http://www.w3.org/2000/svg"
 width="828.000000pt" height="315.000000pt" viewBox="0 0 828.000000 315.000000"
 preserveAspectRatio="xMidYMid meet">

<g transform="translate(0.000000,315.000000) scale(0.100000,-0.100000)"
fill="#000000" stroke="none">
<path d="M0 1575 l0 -1575 4140 0 4140 0 0 1575 0 1575 -4140 0 -4140 0 0
-1575z m3014 1479 c3 -9 6 -42 6 -74 0 -89 -13 -99 -130 -102 l-95 -3 -3 -82
-4 -83 76 0 76 0 0 -60 0 -60 -30 0 c-30 0 -30 -1 -30 -55 0 -48 -2 -55 -20
-55 -18 0 -20 7 -20 55 l0 55 -105 0 -105 0 0 -55 c0 -42 -3 -55 -15 -55 -12
0 -15 13 -15 55 l0 55 -35 0 -35 0 0 60 0 60 75 0 75 0 0 46 0 45 -62 -2
c-102 -3 -114 5 -119 81 -6 87 30 105 124 64 34 -15 68 -34 75 -43 7 -9 12
-47 12 -103 0 -87 0 -88 25 -88 l25 0 0 138 c0 75 4 143 9 151 5 7 35 26 67
42 70 33 168 40 178 13z m1807 -10 c139 -41 231 -177 216 -319 -11 -109 -70
-195 -165 -242 -48 -24 -69 -28 -137 -28 -67 0 -88 5 -130 27 -173 91 -222
300 -106 454 78 103 200 144 322 108z m2105 -19 c220 -107 213 -439 -11 -544
-68 -32 -193 -30 -262 5 -182 90 -225 332 -85 477 39 40 96 75 147 88 56 15
151 3 211 -26z m-6300 -20 c48 -31 54 -65 54 -305 l0 -222 29 -29 c41 -40 91
-40 132 1 29 29 30 31 27 122 l-3 93 -32 3 -32 3 15 41 c18 52 18 144 -1 197
l-14 41 86 0 85 0 -8 -27 c-11 -36 -11 -190 0 -225 8 -27 7 -28 -28 -28 l-36
0 0 -95 c0 -118 -13 -149 -76 -176 -35 -16 -51 -18 -80 -10 -40 11 -81 50 -89
84 -2 12 -6 122 -7 244 l-3 223 -26 26 c-36 36 -99 39 -131 6 -20 -19 -24 -36
-28 -122 l-5 -100 34 0 c33 0 33 -1 25 -32 -11 -42 -11 -184 0 -225 l9 -33
-80 0 c-44 0 -82 3 -85 6 -4 3 1 22 9 42 15 36 14 151 -2 215 -7 25 -5 27 24
27 l31 0 0 88 c1 104 19 149 70 175 41 21 97 18 136 -8z m1363 -253 c43 -31
55 -84 42 -176 -33 -237 -213 -396 -448 -396 -72 0 -76 1 -110 35 l-35 35 4
98 c3 83 8 107 35 165 61 128 176 221 317 253 77 17 162 11 195 -14z m1881
-32 c0 -51 -3 -60 -18 -60 -31 0 -16 118 16 120 1 0 2 -27 2 -60z m-111 -88
c3 -1 -1 -8 -7 -14 -9 -9 -21 -3 -51 26 -24 23 -37 44 -34 53 4 11 16 5 47
-24 22 -21 43 -39 45 -41z m251 15 c-31 -32 -43 -38 -52 -29 -18 18 60 96 79
80 11 -9 6 -19 -27 -51z m2000 -197 l0 -220 -55 0 c-42 0 -55 3 -55 15 0 11
11 15 40 15 l40 0 0 185 0 185 -280 0 c-154 0 -283 0 -287 0 -5 0 -8 -82 -8
-182 l0 -183 38 -3 c24 -2 37 -8 37 -18 0 -10 -14 -14 -55 -14 l-55 0 0 220 0
220 320 0 320 0 0 -220z m2059 96 c12 -11 21 -28 21 -39 0 -28 -29 -57 -57
-57 -29 0 -31 26 -2 33 37 10 20 42 -25 45 -37 3 -38 2 -33 -25 3 -15 8 -44
11 -64 6 -31 11 -37 45 -48 47 -14 88 -59 97 -106 20 -108 -95 -196 -193 -148
-51 25 -89 94 -79 146 7 36 57 99 85 109 9 2 12 11 8 21 -6 15 -24 17 -137 17
-71 0 -130 -2 -130 -4 0 -2 -3 -11 -6 -20 -4 -9 4 -20 24 -30 64 -33 81 -148
31 -203 -78 -84 -203 -56 -239 53 -24 72 33 158 114 171 28 4 35 11 40 34 l6
29 145 0 146 0 -3 33 c-3 28 -7 32 -35 35 -24 2 -33 8 -33 21 0 15 11 17 89
17 73 -1 93 -4 110 -20z m-329 -21 c0 -12 -14 -15 -65 -15 -51 0 -65 3 -65 15
0 12 14 15 65 15 51 0 65 -3 65 -15z m-3611 -75 l-39 -80 -100 0 -100 0 0 -28
c0 -42 -41 -114 -79 -139 -92 -61 -209 -31 -258 67 -28 54 -29 109 -4 158 48
94 75 101 373 102 l246 0 -39 -80z m1741 -101 c0 -9 -9 -19 -19 -22 -20 -5
-22 -18 -36 -169 -5 -55 -10 -68 -24 -68 -9 0 -22 5 -29 12 -9 9 -18 8 -37 -2
-21 -11 -32 -12 -61 -1 -26 10 -39 10 -47 2 -6 -6 -19 -11 -28 -11 -14 0 -18
15 -23 93 -10 130 -14 147 -37 147 -11 0 -19 7 -19 18 0 16 15 17 180 17 160
0 180 -2 180 -16z m-5083 -374 c65 -29 131 -95 162 -160 36 -74 36 -177 0
-231 -14 -21 -29 -61 -32 -87 -15 -109 -104 -164 -201 -123 -40 17 -72 59 -81
109 l-7 37 -57 0 c-55 0 -59 -2 -82 -37 -33 -49 -68 -73 -117 -80 l-42 -6 0
82 0 81 80 0 80 0 0 60 0 60 -80 0 -80 0 0 28 c0 86 69 199 154 251 86 54 206
60 303 16z m1301 -71 c12 -8 29 -28 37 -45 15 -28 15 -30 -9 -41 -23 -10 -29
-7 -55 21 -31 33 -42 37 -70 21 -52 -27 -30 -72 52 -109 34 -16 70 -37 80 -48
26 -30 32 -84 13 -125 -22 -46 -63 -68 -125 -68 -44 0 -56 5 -85 33 -48 45
-55 73 -19 82 21 5 31 2 38 -10 23 -38 31 -45 61 -51 25 -5 37 -1 53 15 41 41
17 86 -61 111 -64 22 -98 62 -98 117 0 38 5 50 34 79 29 29 41 34 83 34 28 0
58 -7 71 -16z m1141 1 c30 -15 64 -75 59 -103 -2 -10 -14 -18 -30 -20 -22 -3
-28 2 -38 33 -21 63 -76 71 -105 15 -17 -33 -21 -183 -5 -224 22 -60 89 -55
110 8 9 28 17 36 36 36 31 0 40 -22 24 -60 -43 -105 -185 -107 -236 -4 -14 30
-18 61 -18 129 0 104 19 156 68 186 37 23 96 24 135 4z m300 0 c48 -24 74 -93
73 -191 0 -137 -46 -204 -139 -204 -93 0 -137 67 -137 205 0 104 19 156 68
186 37 23 96 24 135 4z m1250 0 c30 -15 64 -75 59 -103 -2 -10 -14 -18 -30
-20 -22 -3 -28 2 -38 33 -21 63 -76 71 -105 15 -17 -33 -21 -183 -5 -224 22
-60 89 -55 110 8 9 28 17 36 36 36 31 0 40 -22 24 -60 -43 -105 -185 -107
-236 -4 -14 30 -18 61 -18 129 0 104 19 156 68 186 37 23 96 24 135 4z m1440
0 c48 -24 74 -93 73 -191 0 -137 -46 -204 -139 -204 -93 0 -137 67 -137 205 0
104 19 156 68 186 37 23 96 24 135 4z m-3819 -20 c0 -23 -4 -25 -45 -25 l-45
0 0 -170 0 -170 -35 0 -35 0 0 170 0 170 -40 0 c-36 0 -40 3 -40 25 l0 25 120
0 120 0 0 -25z m186 -60 c12 -44 35 -131 52 -193 l30 -113 -36 3 c-34 3 -37 6
-47 48 l-11 45 -57 3 c-42 2 -57 -1 -57 -10 0 -7 -5 -30 -11 -50 -9 -33 -14
-38 -39 -38 -17 0 -30 3 -30 7 0 11 101 366 107 376 3 4 21 7 41 5 l37 -3 21
-80z m148 18 c16 -38 32 -71 35 -75 4 -4 21 25 38 65 30 69 33 72 67 75 l35 3
-54 -113 c-53 -109 -55 -116 -55 -195 l0 -83 -35 0 -35 0 0 84 c0 77 -3 91
-41 173 -66 142 -65 133 -21 133 37 0 38 -1 66 -67z m1066 -58 l55 -125 3 125
3 125 29 0 30 0 0 -196 0 -195 -32 3 c-31 3 -35 8 -98 147 l-65 144 -3 -147
-3 -146 -29 0 -30 0 0 195 0 195 43 0 42 0 55 -125z m320 0 l55 -125 3 125 3
125 29 0 30 0 0 -196 0 -195 -32 3 c-31 3 -35 8 -98 147 l-65 144 -3 -147 -3
-146 -29 0 -30 0 0 195 0 195 43 0 42 0 55 -125z m420 100 c0 -25 -1 -25 -80
-25 l-80 0 0 -55 0 -55 65 0 c63 0 65 -1 65 -25 0 -24 -2 -25 -65 -25 l-65 0
0 -65 0 -65 80 0 c79 0 80 0 80 -25 l0 -25 -115 0 -115 0 0 195 0 195 115 0
115 0 0 -25z m540 0 c0 -23 -4 -25 -45 -25 l-45 0 0 -170 0 -170 -35 0 -35 0
0 170 0 170 -40 0 c-36 0 -40 3 -40 25 l0 25 120 0 120 0 0 -25z m250 0 c0
-25 -1 -25 -80 -25 l-80 0 0 -55 0 -55 65 0 c63 0 65 -1 65 -25 0 -24 -2 -25
-65 -25 l-65 0 0 -65 0 -65 80 0 c79 0 80 0 80 -25 l0 -25 -115 0 -115 0 0
195 0 195 115 0 115 0 0 -25z m230 6 c52 -27 80 -88 80 -173 0 -80 -15 -121
-59 -163 -30 -28 -38 -30 -122 -33 l-89 -4 0 196 0 196 78 0 c56 0 87 -5 112
-19z m440 -6 c0 -23 -4 -25 -45 -25 l-45 0 0 -170 0 -170 -35 0 -35 0 0 170 0
170 -40 0 c-36 0 -40 3 -40 25 l0 25 120 0 120 0 0 -25z m2000 -62 c0 -62 -10
-80 -66 -127 -30 -24 -58 -46 -63 -48 -5 -2 -11 -14 -13 -28 -3 -24 -1 -26 42
-29 11 0 20 -8 20 -16 0 -12 -16 -15 -80 -15 -63 0 -80 3 -80 14 0 9 12 16 28
18 21 2 28 9 30 31 2 16 -1 27 -9 27 -6 0 -29 16 -50 35 -22 19 -43 35 -47 35
-15 0 -32 50 -32 95 l0 45 160 0 160 0 0 -37z m-20 -383 l0 -70 90 0 90 0 0
-60 0 -60 -325 0 -325 0 0 90 0 89 93 3 92 3 3 38 3 37 140 0 139 0 0 -70z
m-6164 -165 c9 -25 20 -45 24 -45 4 0 15 20 24 45 14 36 22 45 42 45 l23 0
-34 -76 c-26 -57 -35 -90 -35 -130 0 -51 -1 -54 -25 -54 -24 0 -25 3 -25 60 0
44 -7 74 -24 108 -40 79 -41 92 -13 92 21 0 29 -8 43 -45z m278 12 c30 -41 30
-153 0 -194 -30 -41 -94 -45 -128 -8 -14 14 -27 44 -31 66 -10 56 3 114 31
144 34 37 98 33 128 -8z m106 -76 c0 -98 2 -110 19 -116 45 -14 51 0 51 116
l0 109 26 0 26 0 -4 -111 c-3 -102 -5 -112 -27 -130 -23 -19 -86 -26 -107 -11
-25 16 -34 56 -34 151 l0 101 25 0 25 0 0 -109z m298 93 c26 -18 30 -78 7
-111 -14 -20 -13 -27 5 -73 25 -63 25 -60 -4 -60 -21 0 -28 8 -42 55 -13 40
-23 55 -36 55 -15 0 -18 -9 -18 -55 0 -52 -1 -55 -25 -55 l-25 0 0 130 0 130
58 0 c36 0 66 -6 80 -16z m272 -11 c19 -24 19 -28 5 -36 -12 -6 -22 -3 -36 12
-23 24 -42 27 -58 7 -17 -20 -4 -42 32 -57 76 -29 100 -89 55 -136 -31 -33
-96 -32 -128 1 -24 26 -22 56 4 56 8 0 17 -9 21 -19 11 -35 66 -38 79 -4 9 21
-11 42 -56 60 -42 17 -58 38 -58 77 0 65 98 92 140 39z m199 1 c27 -34 27 -64
1 -64 -12 0 -22 9 -26 24 -6 27 -26 39 -49 30 -21 -8 -38 -81 -31 -128 12 -71
45 -87 74 -36 19 33 52 41 52 11 0 -10 -9 -30 -21 -45 -26 -33 -88 -37 -118
-7 -19 19 -41 79 -41 111 0 32 22 92 41 111 30 30 92 26 118 -7z m101 -29 l0
-55 35 0 35 0 0 55 c0 52 1 55 25 55 l25 0 0 -130 0 -130 -25 0 c-24 0 -25 3
-25 60 l0 60 -35 0 -35 0 0 -60 c0 -57 -1 -60 -25 -60 l-25 0 0 130 0 130 25
0 c24 0 25 -3 25 -55z m314 22 c17 -22 21 -43 21 -97 0 -89 -22 -124 -83 -128
-35 -3 -46 1 -66 23 -28 30 -41 88 -31 144 4 22 17 52 31 66 34 37 98 33 128
-8z m210 0 c17 -22 21 -43 21 -97 0 -89 -22 -124 -83 -128 -35 -3 -46 1 -66
23 -28 30 -41 88 -31 144 4 22 17 52 31 66 34 37 98 33 128 -8z m116 -82 l0
-115 45 0 c33 0 45 -4 45 -15 0 -12 -14 -15 -70 -15 l-70 0 0 130 0 130 25 0
25 0 0 -115z m306 -15 c18 -69 33 -126 34 -127 0 -2 -11 -3 -25 -3 -20 0 -25
6 -31 36 -6 33 -8 35 -42 32 -31 -3 -37 -7 -44 -35 -6 -23 -14 -33 -28 -33
-11 0 -20 3 -20 7 0 6 55 211 66 241 2 8 15 12 30 10 26 -3 29 -10 60 -128z
m145 48 l34 -82 3 82 c3 74 5 82 22 82 19 0 20 -8 20 -130 0 -128 0 -130 -22
-130 -19 0 -30 16 -65 98 l-42 97 -1 -97 c0 -91 -1 -98 -20 -98 -19 0 -20 7
-20 130 l0 130 29 0 c26 0 31 -6 62 -82z m260 54 c54 -49 50 -166 -8 -212 -19
-14 -41 -20 -79 -20 l-54 0 0 130 0 130 55 0 c46 0 60 -5 86 -28z m185 -17 c9
-25 20 -45 24 -45 4 0 15 20 24 45 14 36 22 45 42 45 l23 0 -34 -76 c-26 -57
-35 -90 -35 -130 0 -51 -1 -54 -25 -54 -24 0 -25 3 -25 60 0 44 -7 74 -24 108
-40 79 -41 92 -13 92 21 0 29 -8 43 -45z m268 12 c17 -22 21 -43 21 -97 0 -89
-22 -124 -83 -128 -35 -3 -46 1 -66 23 -28 30 -41 88 -31 144 4 22 17 52 31
66 34 37 98 33 128 -8z m106 -76 c0 -98 2 -110 19 -116 45 -14 51 0 51 116 l0
109 26 0 26 0 -4 -111 c-3 -102 -5 -112 -27 -130 -23 -19 -86 -26 -107 -11
-25 16 -34 56 -34 151 l0 101 25 0 25 0 0 -109z m298 93 c26 -18 30 -78 7
-111 -14 -20 -13 -27 5 -73 25 -63 25 -60 -4 -60 -21 0 -28 8 -42 55 -13 40
-23 55 -36 55 -15 0 -18 -9 -18 -55 0 -52 -1 -55 -25 -55 l-25 0 0 130 0 130
58 0 c36 0 66 -6 80 -16z m272 -11 c19 -24 19 -28 5 -36 -12 -6 -22 -3 -36 12
-23 24 -42 27 -58 7 -17 -20 -4 -42 32 -57 76 -29 100 -89 55 -136 -31 -33
-96 -32 -128 1 -24 26 -22 56 4 56 8 0 17 -9 21 -19 11 -35 66 -38 79 -4 9 21
-11 42 -56 60 -42 17 -58 38 -58 77 0 65 98 92 140 39z m200 5 c27 -29 27 -91
0 -118 -12 -12 -33 -20 -55 -20 l-35 0 0 -50 c0 -47 -2 -50 -25 -50 l-25 0 0
130 0 130 60 0 c48 0 63 -4 80 -22z m204 -11 c17 -22 21 -43 21 -97 0 -89 -22
-124 -83 -128 -35 -3 -46 1 -66 23 -14 14 -27 44 -31 66 -10 56 3 114 31 144
34 37 98 33 128 -8z m194 17 c26 -18 30 -78 7 -111 -14 -20 -13 -27 5 -73 25
-63 25 -60 -4 -60 -21 0 -28 8 -42 55 -13 40 -23 55 -36 55 -15 0 -18 -9 -18
-55 0 -52 -1 -55 -25 -55 l-25 0 0 130 0 130 58 0 c36 0 66 -6 80 -16z m192 1
c0 -9 -9 -15 -25 -15 l-25 0 0 -115 0 -115 -25 0 -25 0 0 115 0 115 -30 0
c-20 0 -30 5 -30 15 0 12 16 15 80 15 64 0 80 -3 80 -15z m160 -12 c19 -24 19
-28 5 -36 -12 -6 -22 -3 -36 12 -23 24 -42 27 -58 7 -17 -20 -4 -42 32 -57 76
-29 100 -89 55 -136 -31 -33 -96 -32 -128 1 -24 26 -22 56 4 56 8 0 17 -9 21
-19 11 -35 66 -38 79 -4 9 21 -11 42 -56 60 -42 17 -58 38 -58 77 0 65 98 92
140 39z m-5658 -361 l33 -32 3 -290 3 -290 -211 0 -210 0 0 83 c0 81 -1 82
-30 99 -35 20 -67 69 -76 117 -8 42 16 97 50 112 22 10 24 18 28 95 5 87 18
116 63 135 11 5 86 7 167 6 l148 -2 32 -33z m6918 -47 c0 -36 42 -75 80 -75
37 0 90 47 90 79 0 20 6 21 86 21 84 0 87 -1 120 -34 l34 -34 0 -146 0 -146
-60 0 -60 0 0 -125 c0 -125 0 -125 -24 -125 l-23 0 1 128 c4 284 4 282 26 282
16 0 20 -7 20 -30 0 -28 2 -30 41 -30 l41 0 -4 96 c-4 114 -11 124 -99 124
-53 0 -59 -2 -71 -27 -19 -39 -74 -73 -119 -73 -41 0 -102 43 -114 81 -5 16
-16 19 -66 19 -87 0 -99 -15 -99 -130 l0 -90 40 0 c38 0 40 2 40 30 0 23 4 30
20 30 19 0 20 -7 20 -205 0 -198 -1 -205 -20 -205 -19 0 -20 7 -20 125 l0 125
-60 0 -60 0 0 143 c1 199 13 216 158 217 81 0 82 0 82 -25z m-6160 -140 c0
-36 42 -75 80 -75 37 0 90 47 90 79 0 20 6 21 86 21 84 0 87 -1 120 -34 l34
-34 0 -146 0 -146 -60 0 -60 0 0 -145 0 -145 -205 0 -205 0 0 145 0 145 -60 0
-60 0 0 143 c1 199 13 216 158 217 81 0 82 0 82 -25z m1405 -38 c228 -127 214
-466 -24 -575 -65 -30 -158 -35 -232 -14 -103 30 -196 136 -220 250 -21 102
19 220 99 293 68 63 111 79 222 79 89 0 99 -2 155 -33z m4054 -7 c55 -24 130
-97 160 -155 22 -43 41 -127 41 -179 0 -88 -60 -177 -131 -196 -37 -10 -39
-13 -39 -50 0 -29 -4 -40 -15 -40 -11 0 -15 11 -15 39 0 35 -3 40 -29 46 -17
3 -49 20 -72 37 l-41 30 -132 -31 c-72 -17 -141 -34 -154 -38 l-23 -6 3 164
c3 153 5 168 29 219 76 160 256 229 418 160z m-1929 -16 c43 -17 73 -57 85
-111 8 -40 -16 -129 -46 -167 -16 -20 -19 -30 -10 -39 6 -6 11 -28 11 -50 0
-29 -7 -46 -29 -68 -39 -38 -87 -39 -131 -2 l-32 27 -76 -13 c-102 -17 -125
-27 -118 -49 4 -13 -13 -37 -62 -85 l-68 -67 -39 40 -39 40 59 62 c75 78 77
79 92 66 17 -13 27 15 49 129 28 149 75 222 176 272 69 35 118 39 178 15z
m-1467 -26 c9 -7 57 -85 107 -173 51 -88 103 -179 116 -202 l24 -41 96 29
c118 35 148 36 168 7 24 -34 21 -133 -4 -158 -18 -18 -33 -20 -172 -20 -84 0
-159 4 -166 9 -21 13 -282 473 -282 496 0 36 28 65 64 65 18 0 40 -6 49 -12z
m4218 -9 c16 -16 20 -29 16 -53 -3 -19 1 -39 9 -51 50 -68 -46 -152 -112 -97
-31 25 -35 48 -18 92 9 22 14 46 11 52 -8 22 11 58 35 68 33 13 36 12 59 -11z
m-1856 -43 c68 -31 131 -104 151 -174 38 -131 -17 -260 -138 -327 -46 -26 -63
-30 -133 -30 -71 0 -86 3 -135 31 -205 116 -191 407 24 505 61 28 167 25 231
-5z m-1925 -71 c17 -15 20 -29 18 -69 -3 -45 -7 -53 -31 -64 -39 -19 -123 -17
-153 3 -21 13 -24 23 -24 71 0 52 2 56 33 70 43 19 130 13 157 -11z"/>
<path d="M2892 3030 c-35 -17 -67 -30 -72 -30 -16 0 -27 -30 -22 -61 l4 -30
87 3 86 3 0 69 c0 38 -4 71 -10 72 -5 2 -38 -10 -73 -26z"/>
<path d="M2534 2927 c-3 -8 -4 -32 -2 -53 l3 -39 73 -3 c71 -3 72 -3 72 22 0
21 -10 31 -47 50 -71 35 -92 40 -99 23z"/>
<path d="M2580 2650 c0 -19 7 -20 160 -20 153 0 160 1 160 20 0 19 -7 20 -160
20 -153 0 -160 -1 -160 -20z"/>
<path d="M4734 2995 c-8 -13 -16 -35 -17 -49 -2 -26 0 -27 54 -31 64 -4 142
-39 189 -85 42 -41 41 -12 -2 60 -37 61 -96 103 -166 119 -39 8 -44 7 -58 -14z"/>
<path d="M4640 2999 c-55 -22 -70 -47 -70 -118 0 -71 12 -126 33 -155 16 -22
51 -17 87 12 22 18 22 19 6 65 -18 53 -21 142 -6 181 8 22 7 26 -8 25 -9 0
-28 -5 -42 -10z"/>
<path d="M4521 2897 c-22 -28 -41 -89 -42 -137 -1 -28 0 -53 3 -55 3 -3 25 -8
51 -11 l46 -7 -19 52 c-11 28 -21 78 -22 111 -2 33 -4 60 -4 60 -1 0 -7 -6
-13 -13z"/>
<path d="M4720 2860 c0 -11 6 -36 14 -55 12 -27 23 -36 58 -45 63 -17 124 -56
152 -97 l25 -36 11 29 c27 69 25 78 -27 130 -60 62 -124 94 -186 94 -41 0 -47
-3 -47 -20z"/>
<path d="M4686 2697 c-41 -27 -61 -32 -122 -35 l-73 -4 13 -27 c31 -58 51 -70
108 -65 96 10 152 31 194 74 21 22 39 45 39 52 0 12 -59 37 -90 36 -11 0 -42
-14 -69 -31z"/>
<path d="M4858 2642 c-34 -56 -144 -111 -228 -112 l-25 -1 28 -15 c77 -42 200
-23 273 41 l39 34 -21 38 c-27 48 -45 52 -66 15z"/>
<path d="M6708 3006 c-43 -16 -88 -43 -88 -54 1 -18 29 -42 43 -36 20 7 32
-13 17 -30 -14 -18 6 -105 26 -113 18 -7 18 -33 0 -33 -15 0 -19 -10 -31 -69
-5 -22 -3 -36 5 -41 19 -12 5 -39 -17 -34 -11 3 -23 -3 -32 -17 -12 -20 -11
-25 9 -41 36 -29 125 -51 178 -43 54 8 120 39 128 60 7 19 -22 49 -40 42 -18
-7 -28 17 -14 31 13 13 -1 102 -18 109 -18 7 -18 29 0 36 17 7 30 96 15 113
-14 17 -2 36 19 30 10 -3 24 4 34 19 18 23 17 24 -15 43 -67 41 -152 52 -219
28z"/>
<path d="M6971 2916 c-11 -13 -11 -19 -1 -31 14 -17 4 -37 -17 -33 -24 4 -40
-62 -19 -78 20 -14 21 -34 1 -34 -18 0 -18 -4 -5 -52 7 -25 15 -35 24 -32 18
7 32 -16 17 -25 -14 -9 -3 -43 13 -38 20 6 57 85 63 135 6 55 -16 142 -45 180
-16 21 -20 22 -31 8z"/>
<path d="M6560 2888 c-30 -50 -43 -126 -30 -184 11 -49 45 -114 60 -114 15 0
32 28 20 35 -17 10 -12 36 7 33 25 -4 48 62 27 78 -18 14 -18 30 0 37 11 5 12
14 4 47 -9 33 -14 39 -29 35 -14 -5 -19 -1 -19 14 0 12 5 21 11 21 8 0 8 5 -1
15 -18 22 -28 19 -50 -17z"/>
<path d="M865 2810 l0 -100 25 0 25 0 0 100 0 100 -25 0 -25 0 0 -100z"/>
<path d="M415 2605 c0 -105 0 -106 23 -103 22 3 23 7 25 106 l2 102 -25 0 -25
0 0 -105z"/>
<path d="M1870 2733 c0 -10 112 -123 122 -123 11 0 10 28 -2 72 -9 31 -17 39
-48 48 -43 12 -72 13 -72 3z"/>
<path d="M1765 2716 c-112 -35 -193 -104 -244 -208 -46 -92 -44 -101 52 -196
95 -95 104 -97 195 -51 106 52 180 142 211 254 l11 40 -87 87 c-48 49 -90 88
-93 87 -3 0 -23 -6 -45 -13z m17 -133 c17 -15 19 -15 38 2 16 14 23 16 32 7 9
-9 7 -16 -7 -32 -18 -19 -18 -21 0 -40 14 -16 16 -23 7 -32 -9 -9 -16 -7 -32
7 -16 14 -22 15 -35 5 -20 -16 -19 -37 1 -48 9 -5 14 -14 10 -21 -10 -15 -22
-14 -41 5 -15 15 -17 15 -36 -2 -19 -17 -19 -17 1 -39 17 -18 18 -24 7 -33
-11 -9 -18 -7 -32 8 l-18 20 -22 -20 c-18 -17 -24 -18 -33 -7 -9 11 -7 18 8
32 l20 18 -20 22 c-17 19 -18 24 -7 34 11 9 17 8 27 -4 16 -19 34 -19 50 0 10
13 9 19 -5 35 -13 14 -15 24 -8 31 7 7 14 5 23 -6 16 -19 34 -19 50 0 10 13
10 19 -5 35 -9 10 -14 24 -10 29 9 15 15 14 37 -6z"/>
<path d="M1480 2312 c0 -24 5 -52 10 -62 11 -20 61 -34 99 -28 19 3 14 11 -44
68 l-65 64 0 -42z"/>
<path d="M7593 2363 c-36 -7 -73 -59 -73 -103 0 -54 44 -100 95 -100 108 0
152 108 74 182 -21 21 -24 17 -34 -39 -6 -37 -10 -43 -32 -43 -18 0 -23 4 -19
18 8 28 19 92 15 91 -2 -1 -14 -4 -26 -6z"/>
<path d="M8005 2359 c-4 -5 -3 -29 1 -54 6 -41 4 -45 -14 -45 -22 0 -32 18
-32 61 0 37 -21 38 -49 3 -52 -66 -5 -164 77 -164 59 0 102 39 102 90 0 22 -5
49 -11 62 -12 27 -66 61 -74 47z"/>
<path d="M3642 2470 c-18 -11 -41 -34 -52 -52 -71 -117 71 -259 188 -188 50
31 74 76 69 133 l-4 47 108 0 109 0 20 40 20 40 -212 0 c-195 0 -216 -2 -246
-20z m125 -63 c7 -7 15 -27 19 -44 5 -27 1 -37 -24 -63 -17 -16 -40 -30 -52
-30 -25 0 -80 51 -80 74 0 30 20 67 42 76 27 11 78 4 95 -13z"/>
<path d="M3674 2376 c-9 -23 -1 -48 19 -60 25 -16 52 4 52 40 0 25 -4 29 -33
32 -22 2 -34 -2 -38 -12z"/>
<path d="M5597 2273 c7 -84 14 -114 24 -108 5 4 23 -3 39 -15 30 -21 30 -21
63 -2 17 11 38 17 45 15 8 -3 12 9 12 45 0 27 3 64 6 81 l7 31 -101 0 -100 0
5 -47z"/>
<path d="M589 1956 c-64 -17 -131 -59 -163 -100 -24 -32 -56 -104 -56 -127 0
-5 58 -9 128 -9 168 0 168 0 174 -154 4 -107 4 -108 36 -137 68 -61 156 -21
168 76 4 30 19 69 37 98 27 43 29 53 23 103 -20 171 -189 293 -347 250z m221
-416 c37 -37 14 -100 -36 -100 -52 0 -75 74 -32 104 30 21 44 20 68 -4z"/>
<path d="M754 1509 c-3 -6 0 -17 8 -25 13 -13 16 -13 27 0 7 8 10 20 6 26 -8
13 -32 13 -41 -1z"/>
<path d="M530 1658 c0 -13 -3 -40 -6 -60 l-7 -38 57 0 56 0 0 48 c0 58 -12 72
-62 72 -33 0 -38 -3 -38 -22z"/>
<path d="M369 1518 c0 -2 -2 -20 -5 -40 -3 -32 0 -38 15 -38 22 0 67 34 81 61
10 18 7 19 -40 19 -27 0 -50 -1 -51 -2z"/>
<path d="M3431 1853 c-25 -21 -44 -117 -35 -173 13 -80 17 -91 39 -106 57 -37
95 19 95 139 0 84 -14 133 -40 147 -26 14 -35 13 -59 -7z"/>
<path d="M6121 1853 c-25 -21 -44 -117 -35 -173 13 -80 17 -91 39 -106 57 -37
95 19 95 139 0 84 -14 133 -40 147 -26 14 -35 13 -59 -7z"/>
<path d="M2501 1768 c-6 -29 -14 -63 -17 -75 -6 -21 -3 -23 36 -23 35 0 41 3
36 18 -3 9 -10 40 -17 67 -17 71 -24 73 -38 13z"/>
<path d="M5440 1716 c0 -138 1 -146 19 -146 37 0 71 20 92 52 16 27 19 46 17
105 -3 62 -7 77 -29 98 -14 14 -42 28 -62 32 l-37 6 0 -147z"/>
<path d="M7714 1816 c-8 -21 3 -66 16 -66 13 0 13 67 0 75 -6 3 -13 -1 -16 -9z"/>
<path d="M7828 1822 l-58 -3 4 -47 c2 -26 4 -50 5 -54 3 -17 35 -38 60 -38 42
0 61 28 61 88 0 28 -3 52 -7 54 -5 2 -34 2 -65 0z"/>
<path d="M7940 1790 c0 -25 4 -39 10 -35 6 3 10 19 10 35 0 16 -4 32 -10 35
-6 4 -10 -10 -10 -35z"/>
<path d="M7740 1380 l0 -90 100 0 100 0 0 90 0 90 -100 0 -100 0 0 -90z"/>
<path d="M7552 1343 l3 -48 68 -3 67 -3 0 51 0 50 -71 0 -70 0 3 -47z"/>
<path d="M7980 1310 c0 -18 7 -20 70 -20 63 0 70 2 70 20 0 18 -7 20 -70 20
-63 0 -70 -2 -70 -20z"/>
<path d="M2001 1276 c-16 -19 -24 -104 -13 -140 23 -82 82 -44 82 53 0 80 -37
126 -69 87z"/>
<path d="M2410 1245 c0 -38 3 -45 19 -45 21 0 51 25 51 41 0 25 -23 49 -45 49
-23 0 -25 -4 -25 -45z"/>
<path d="M3291 1276 c-16 -19 -24 -104 -13 -140 23 -82 82 -44 82 53 0 80 -37
126 -69 87z"/>
<path d="M3501 1276 c-16 -19 -24 -104 -13 -140 23 -82 82 -44 82 53 0 80 -37
126 -69 87z"/>
<path d="M3948 1244 c-4 -5 -9 -26 -13 -47 -7 -35 -6 -37 18 -37 27 0 27 -3 3
85 -1 5 -5 5 -8 -1z"/>
<path d="M4330 1190 c0 -111 8 -122 55 -75 20 19 25 34 25 75 0 41 -5 56 -25
75 -47 47 -55 36 -55 -75z"/>
<path d="M4781 1276 c-16 -19 -24 -104 -13 -140 23 -82 82 -44 82 53 0 80 -37
126 -69 87z"/>
<path d="M5190 1245 c0 -38 3 -45 19 -45 21 0 51 25 51 41 0 25 -23 49 -45 49
-23 0 -25 -4 -25 -45z"/>
<path d="M5660 1240 c0 -36 4 -50 14 -50 33 0 46 13 46 44 0 36 -15 56 -42 56
-15 0 -18 -9 -18 -50z"/>
<path d="M5861 1276 c-16 -19 -24 -104 -13 -140 23 -82 82 -44 82 53 0 80 -37
126 -69 87z"/>
<path d="M6060 1245 c0 -38 3 -45 19 -45 21 0 51 25 51 41 0 25 -23 49 -45 49
-23 0 -25 -4 -25 -45z"/>
<path d="M495 910 c-14 -15 -19 -40 -22 -90 l-2 -70 48 0 c33 0 56 -6 74 -20
20 -16 40 -20 102 -20 117 0 145 21 145 112 0 49 -16 83 -47 97 -13 6 -79 11
-152 11 -116 0 -130 -2 -146 -20z"/>
<path d="M415 685 c-28 -27 -31 -54 -11 -93 31 -60 35 -61 241 -62 l190 -2 3
82 c3 78 2 81 -17 71 -11 -6 -60 -11 -109 -11 -84 0 -89 -1 -102 -24 -25 -48
-112 -62 -118 -19 -3 19 2 22 35 25 28 2 39 8 41 22 5 26 -15 36 -76 36 -43 0
-58 -5 -77 -25z"/>
<path d="M490 420 l0 -60 175 0 175 0 0 60 0 60 -175 0 -175 0 0 -60z m250 -1
c0 -18 -5 -20 -70 -18 -61 2 -70 4 -70 21 0 16 9 18 70 18 64 0 70 -2 70 -21z"/>
<path d="M7560 600 c0 -5 18 -10 40 -10 22 0 40 5 40 10 0 6 -18 10 -40 10
-22 0 -40 -4 -40 -10z"/>
<path d="M8050 599 c0 -5 18 -9 41 -9 22 0 38 4 35 9 -3 5 -22 9 -41 9 -19 0
-35 -4 -35 -9z"/>
<path d="M1420 710 c-17 -17 -20 -33 -20 -110 l0 -90 40 0 c38 0 40 2 40 30 0
23 4 30 20 30 19 0 20 -7 20 -205 l0 -205 162 2 162 3 1 125 c2 270 3 280 25
280 16 0 20 -7 20 -30 0 -28 2 -30 41 -30 l41 0 -4 96 c-4 114 -11 124 -99
124 -53 0 -59 -2 -71 -27 -19 -39 -74 -73 -119 -73 -41 0 -102 43 -114 81 -9
28 -116 28 -145 -1z m301 -201 c16 -16 20 -29 16 -53 -3 -19 1 -39 9 -51 50
-68 -46 -152 -112 -97 -31 25 -35 48 -18 92 9 22 14 46 11 52 -8 22 11 58 35
68 33 13 36 12 59 -11z"/>
<path d="M1663 474 c-3 -8 -1 -20 6 -27 14 -14 47 15 37 32 -10 16 -36 13 -43
-5z"/>
<path d="M1655 394 c-32 -33 4 -92 42 -68 32 20 39 41 19 63 -23 25 -39 26
-61 5z"/>
<path d="M1400 460 c0 -5 18 -10 40 -10 22 0 40 5 40 10 0 6 -18 10 -40 10
-22 0 -40 -4 -40 -10z"/>
<path d="M1890 460 c0 -5 18 -10 41 -10 24 0 38 4 34 10 -3 6 -22 10 -41 10
-19 0 -34 -4 -34 -10z"/>
<path d="M2792 703 c-9 -3 -1 -14 22 -29 l36 -25 30 22 c16 12 27 26 24 31 -6
9 -90 10 -112 1z"/>
<path d="M2677 649 c-42 -35 -44 -45 -19 -115 l19 -50 -54 -39 c-59 -43 -64
-58 -37 -125 l16 -40 68 0 68 0 22 -65 c20 -60 24 -65 56 -71 20 -4 49 -2 67
2 27 8 34 18 51 72 l21 62 68 0 68 0 15 36 c33 79 31 86 -31 128 -31 20 -55
43 -52 49 2 7 12 36 22 66 l18 55 -32 28 c-50 44 -73 45 -127 4 -26 -20 -50
-36 -55 -36 -4 0 -28 16 -53 35 -26 19 -54 35 -64 35 -10 0 -34 -14 -55 -31z
m236 -136 c34 -25 64 -48 66 -50 2 -1 -9 -32 -25 -68 l-29 -64 -76 -1 -76 0
-28 65 c-15 36 -25 68 -23 71 9 8 123 93 126 94 2 0 31 -21 65 -47z"/>
<path d="M2796 477 l-39 -33 22 -42 c21 -41 23 -42 69 -42 45 0 49 2 65 35 9
20 17 42 17 49 0 14 -68 66 -86 66 -5 0 -26 -15 -48 -33z"/>
<path d="M2587 535 c-9 -20 -17 -47 -17 -61 l0 -25 33 26 c32 24 33 27 23 60
-6 19 -13 35 -17 35 -3 0 -13 -16 -22 -35z"/>
<path d="M3073 536 c-11 -34 -9 -37 20 -60 17 -14 33 -23 35 -21 6 6 -17 80
-31 99 -12 16 -14 15 -24 -18z"/>
<path d="M2640 240 c0 -15 75 -70 94 -70 3 0 -1 17 -8 37 -12 34 -16 38 -49
38 -21 1 -37 -2 -37 -5z"/>
<path d="M2973 212 c-8 -19 -12 -37 -9 -40 7 -6 89 51 93 65 2 5 -13 9 -33 9
-32 -1 -39 -5 -51 -34z"/>
<path d="M6858 676 c-91 -25 -160 -91 -193 -185 -26 -73 -29 -71 109 -71 138
0 156 -7 156 -61 0 -68 46 -134 108 -153 17 -6 22 -3 22 12 0 10 -9 27 -20 37
-27 24 -26 70 2 89 31 22 54 20 72 -6 21 -30 20 -54 -4 -78 -18 -18 -28 -60
-14 -60 24 0 78 38 96 69 33 52 31 165 -4 242 -61 133 -199 202 -330 165z"/>
<path d="M6640 297 c0 -46 2 -86 5 -89 3 -3 61 9 130 25 l124 31 -5 46 c-9 74
-2 70 -134 70 l-120 0 0 -83z"/>
<path d="M7055 310 c-4 -7 -3 -16 3 -22 14 -14 45 -2 40 15 -6 16 -34 21 -43
7z"/>
<path d="M4972 634 c-150 -75 -195 -279 -69 -312 49 -13 72 -4 85 32 14 37 70
69 105 61 31 -8 57 22 73 84 34 131 -65 200 -194 135z"/>
<path d="M5030 360 c-11 -11 -20 -30 -20 -43 0 -30 35 -67 64 -67 28 0 66 39
66 68 0 29 -34 62 -65 62 -14 0 -34 -9 -45 -20z"/>
<path d="M4800 306 c0 -19 4 -23 20 -19 24 6 25 10 6 29 -20 20 -26 18 -26
-10z"/>
<path d="M4667 182 c-34 -35 -36 -40 -22 -52 14 -11 21 -8 55 25 30 30 37 42
29 52 -16 19 -21 17 -62 -25z"/>
<path d="M3594 616 c-5 -13 113 -231 232 -429 l29 -47 145 2 145 3 3 53 c2 41
0 54 -13 59 -9 3 -68 -10 -130 -29 l-113 -35 -125 216 c-94 163 -130 217 -146
219 -12 2 -24 -3 -27 -12z"/>
<path d="M7823 614 c-3 -8 -1 -20 6 -27 14 -14 47 15 37 32 -10 16 -36 13 -43
-5z"/>
<path d="M7815 534 c-32 -33 4 -92 42 -68 32 20 39 41 19 63 -23 25 -39 26
-61 5z"/>
<path d="M5810 574 c-44 -19 -97 -69 -120 -114 -59 -115 -12 -262 103 -322 58
-31 166 -31 222 -1 86 45 129 117 129 213 0 102 -49 181 -139 221 -49 23 -146
24 -195 3z m110 -144 l0 -60 65 0 c58 0 65 -2 65 -20 0 -18 -7 -20 -80 -20
l-80 0 0 80 c0 64 3 80 15 80 12 0 15 -13 15 -60z"/>
<path d="M3962 519 c-30 -12 -20 -27 23 -35 42 -8 95 4 95 21 0 23 -73 32
-118 14z"/>
<path d="M3940 447 c0 -23 96 -35 131 -17 34 19 20 25 -56 25 -41 0 -75 -3
-75 -8z"/>
</g>
</svg>
